<svg xmlns="http://www.w3.org/2000/svg" xmlns:xlink="http://www.w3.org/1999/xlink" width="64" height="56"><defs><path id="a" d="M407.85 59.9l-5.25-9.19h10.5zm-1.31.77h-10.5l5.25-9.19zm2.63 0l5.25-9.19 5.26 9.2zm10.5 1.53l-5.25 9.19-5.25-9.19zm-13.13 0l-5.25 9.19-5.26-9.19zm-11.82.77l5.25 9.18h-10.5zm21.02 9.18l5.25-9.18 5.25 9.18zm-2.63-22.97H402.6l5.25-9.19zm2.63 24.5h10.5l-5.25 9.2zm-26.28 0h10.51l-5.25 9.2zm-1.3.77l5.24 9.2h-10.5zm34.14 9.2l5.26-9.2 5.25 9.2zm10.51 1.52l-5.25 9.19-5.26-9.19zm-13.13 0l-5.26 9.19-5.25-9.19zm-36.78 0h10.5l-5.25 9.19zm-1.32.77l5.26 9.19h-10.5zm26.27 0l5.26 9.19H402.6zm13.14 0l5.25 9.19h-10.5zm18.39 9.19h-10.5l5.25-9.2z"/></defs><g transform="translate(-376 -40)"><use xlink:href="#a"/><use fill="#c7b299" xlink:href="#a"/></g></svg>